PathFileType	4	(X/Y/Z)	C:\Users\Willi\SynologyDrive\Deimel_MSc_Deadlift\Athlete_03\Athlete_3_22_07_06\dl_90\marker_experimental.trc
DataRate	CameraRate	NumFrames	NumMarkers	Units	OrigDataRate	OrigDataStartFrame	OrigNumFrames
200.000000	200.000000	4	59	mm	200.000000	1347	5390
Frame#	Time	BR			GLAB			RFHD			LFHD			C7			T6			SPINMOL			SPINM2			SPINM3			T12			BELTOL			BELT2			BELT3			SACROL			SACR2			SACR3			LTHOL			LTH2			LTH3			LSHAOL			LSHA2			LSHA3			LHEE			LTOE			LM5			RTHOL			RTH2			RTH3			RSHAOL			RSHA2			RSHA3			RHEE			RTOE			RM5			STRN			XIPH			LACR			LUAOL			LUA2			LUA3			LLAOL			LLA2			LLA3			LWRU			RACR			RUAOL			RUA2			RUA3			RLAOL			RLA2			RLA3			RWRU			BL			USERMO0			USERMO1			USERMO2			USERMO3			USERMO4			USERMO5			
		X1	Y1	Z1	X2	Y2	Z2	X3	Y3	Z3	X4	Y4	Z4	X5	Y5	Z5	X6	Y6	Z6	X7	Y7	Z7	X8	Y8	Z8	X9	Y9	Z9	X10	Y10	Z10	X11	Y11	Z11	X12	Y12	Z12	X13	Y13	Z13	X14	Y14	Z14	X15	Y15	Z15	X16	Y16	Z16	X17	Y17	Z17	X18	Y18	Z18	X19	Y19	Z19	X20	Y20	Z20	X21	Y21	Z21	X22	Y22	Z22	X23	Y23	Z23	X24	Y24	Z24	X25	Y25	Z25	X26	Y26	Z26	X27	Y27	Z27	X28	Y28	Z28	X29	Y29	Z29	X30	Y30	Z30	X31	Y31	Z31	X32	Y32	Z32	X33	Y33	Z33	X34	Y34	Z34	X35	Y35	Z35	X36	Y36	Z36	X37	Y37	Z37	X38	Y38	Z38	X39	Y39	Z39	X40	Y40	Z40	X41	Y41	Z41	X42	Y42	Z42	X43	Y43	Z43	X44	Y44	Z44	X45	Y45	Z45	X46	Y46	Z46	X47	Y47	Z47	X48	Y48	Z48	X49	Y49	Z49	X50	Y50	Z50	X51	Y51	Z51	X52	Y52	Z52	X53	Y53	Z53	X54	Y54	Z54	X55	Y55	Z55	X56	Y56	Z56	X57	Y57	Z57	X58	Y58	Z58	X59	Y59	Z59	

1348	6.735	278.0941467285156	251.0059051513672	-105.149772644043	597.3615112304688	767.4849853515626	-1210.921630859375	608.322509765625	832.0371093750001	-1136.703735351562	600.20556640625	827.7610473632814	-1292.363525390625	466.0429382324219	984.2440185546876	-1211.377319335938	272.6769104003906	1056.9560546875	-1218.60205078125	238.1152801513672	1065.854858398438	-1219.634643554688	177.2924346923828	1065.971435546875	-1167.580932617188	175.9569854736328	1065.9072265625	-1217.44677734375	119.6305465698242	1053.638793945312	-1219.14990234375	39.63747024536133	1071.926879882812	-1220.820434570312	-15.02337074279785	1045.311645507812	-1168.807006835938	-18.68758773803711	1050.136352539062	-1218.689575195312	-76.40355682373047	999.3560180664064	-1238.776733398438	-64.95616912841797	1000.914184570313	-1188.91552734375	-123.8309783935547	973.8577880859376	-1200.100952148438	17.60981941223145	729.9866943359376	-1456.196533203125	1.320258736610413	651.9677734375001	-1447.754760742188	45.71460723876953	674.8188476562501	-1456.221923828125	99.30783081054688	344.8652954101564	-1463.578857421875	61.10472106933594	276.5851135253907	-1453.615478515625	109.9205551147461	283.8190917968751	-1458.685424804688	42.07572555541992	65.51974487304696	-1367.285034179688	251.7429962158203	75.99965667724618	-1383.665283203125	203.1339111328125	53.72171401977548	-1486.547607421875	20.02215957641602	697.1113281250001	-982.985107421875	90.61125946044922	661.1702270507814	-972.2073364257812	45.33437728881836	640.4337158203126	-978.2598876953125	81.59954071044922	340.9273681640626	-965.258544921875	125.23095703125	274.6297302246094	-962.010009765625	77.00998687744141	280.5753784179688	-974.5771484375	44.43465042114258	64.88327789306648	-1067.113159179688	251.5418090820312	68.79752349853521	-1027.108032226562	194.5171508789062	67.80907440185553	-935.3290405273438	386.4766235351562	834.7158813476564	-1218.679809570312	235.8582305908203	796.8623657226564	-1212.0390625	425.6733703613281	870.7548217773439	-1410.031616210938	373.6375427246094	761.2538452148439	-1484.301147460938	333.0970458984375	716.1868896484376	-1512.610717773438	369.4601440429688	695.4704589843751	-1482.883178710938	316.134033203125	484.2595214843751	-1495.08544921875	288.9723205566406	425.1224365234376	-1505.929077148438	318.7074584960938	426.3811340332032	-1466.09912109375	289.1448059082031	334.2646789550782	-1483.34716796875	422.9339904785156	865.9788208007814	-1034.076538085938	371.4372253417969	722.4174804687501	-987.187744140625	361.8996276855469	664.2911987304689	-1015.161010742188	355.2543334960938	661.5673828125001	-965.9425659179688	322.762451171875	471.9674072265626	-966.5374145507812	316.973876953125	416.5110473632813	-999.6864013671875	308.0023803710938	411.5369873046876	-949.5422973632812	292.2997741699219	338.2478027343751	-948.2289428710938	243.7588043212891	251.2017059326173	-2327.8857421875	0.02352700009942055	0.007225960027426483	-0.03062839992344379	0.005985449999570847	0.01084909960627556	-0.007934959605336189	0.006758289877325296	0.007522699888795615	-0.01234470028430223	0.01919789984822273	2.141779899597168	-2.077399969100952	2.009190082550049	2.75885009765625	-1.952200055122375	2.932719945907593	0	0	
1349	6.74	278.028564453125	251.0138092041016	-105.1588592529297	597.2490234375	767.1088256835939	-1210.993408203125	608.2721557617188	831.6315307617189	-1136.758666992188	600.1757202148438	827.3823852539064	-1292.421997070312	466.20263671875	983.9846801757814	-1211.415283203125	272.9403076171875	1056.928955078125	-1218.520141601562	238.3677215576172	1065.870361328125	-1219.520629882812	177.5580902099609	1065.971435546875	-1167.449096679688	176.2104949951172	1065.958740234375	-1217.3134765625	119.8144912719727	1053.71630859375	-1219.005737304688	39.72439193725586	1072.056518554688	-1220.609619140625	-14.90045642852783	1045.41259765625	-1168.565673828125	-18.60280990600586	1050.273071289062	-1218.447265625	-76.33781433105469	999.4948730468751	-1238.528564453125	-64.84718322753906	1001.019470214844	-1188.672729492188	-123.7387390136719	973.9824829101564	-1199.832153320312	17.46602439880371	730.0527343750001	-1456.005615234375	1.131304264068604	652.0425415039064	-1447.558349609375	45.53973770141602	674.8671875000001	-1456.02880859375	99.077880859375	344.9177246093751	-1463.449096679688	60.92216491699219	276.6080932617189	-1453.494506835938	109.7287750244141	283.8717346191407	-1458.60400390625	42.06600570678711	65.5090866088868	-1367.2822265625	251.7435913085938	76.0138473510743	-1383.649536132812	203.1555938720703	53.73979568481455	-1486.517456054688	20.17962837219238	697.1399536132814	-982.9190063476562	90.75628662109375	661.1699218750001	-972.1815795898438	45.46718597412109	640.4514770507814	-978.2079467773438	81.62559509277344	340.9361267089844	-965.1982421875	125.2387161254883	274.6224670410157	-961.947021484375	77.00852203369141	280.5794067382813	-974.48583984375	44.42065048217773	64.86196136474616	-1067.101928710938	251.5352630615234	68.81232452392584	-1027.110473632812	194.5149230957031	67.80485534667974	-935.324951171875	386.4783935546875	834.4671630859376	-1218.755737304688	235.7912445068359	796.8432617187501	-1211.991455078125	425.6672058105469	870.5078125000001	-1410.093017578125	373.8261413574219	761.0670166015626	-1484.394897460938	333.3372802734375	715.9741821289064	-1512.741577148438	369.6450805664062	695.2817993164064	-1482.942138671875	316.1000671386719	484.076385498047	-1495.227661132812	288.9380493164062	424.991668701172	-1506.3115234375	318.5085754394531	426.1166381835939	-1466.349853515625	288.9017333984375	334.0682373046876	-1483.883178710938	423.0636291503906	865.5690917968751	-1034.174682617188	371.6286010742188	722.0518188476564	-987.2042846679688	361.8871154785156	663.9484252929689	-1015.113464355469	355.5008850097656	661.2370605468751	-965.8549194335938	322.7501525878906	471.7297363281251	-966.3433837890625	316.6966552734375	416.2782592773438	-999.4481201171875	308.0484313964844	411.3179931640626	-949.2453002929688	292.1790161132812	338.0033264160157	-947.8656005859375	243.7236328125	251.206008911133	-2327.89794921875	0.02302329987287521	0.007270739879459144	-0.03044860064983368	0.006075540091842413	0.01079049985855818	-0.007854919880628586	0.006568680051714182	0.007649700157344342	-0.01207990013062954	0.01793449930846691	2.143899917602539	-2.076519966125488	2.010600090026855	2.76065993309021	-1.953099966049194	2.930949926376343	0	0	
1350	6.745	277.9627990722656	251.0208435058594	-105.1673049926758	597.1392211914062	766.7431030273439	-1211.070678710938	608.2205810546875	831.2343139648439	-1136.812133789062	600.1470947265625	827.0150146484376	-1292.478759765625	466.3449401855469	983.7272949218751	-1211.45654296875	273.1837158203125	1056.899658203125	-1218.444702148438	238.5996246337891	1065.879760742188	-1219.415161132812	177.80419921875	1065.968139648438	-1167.324462890625	176.4436950683594	1066.002807617188	-1217.187622070312	119.9845199584961	1053.78564453125	-1218.867309570312	39.8049201965332	1072.175903320312	-1220.404907226562	-14.78411865234375	1045.503784179688	-1168.330688476562	-18.52402877807617	1050.398315429688	-1218.211181640625	-76.27716827392578	999.6217041015626	-1238.287475585938	-64.74428558349609	1001.114501953125	-1188.435546875	-123.6516799926758	974.0948486328126	-1199.56884765625	17.3336067199707	730.1125488281251	-1455.814697265625	0.9573514461517334	652.1100463867189	-1447.364013671875	45.37895584106445	674.9105224609376	-1455.835327148438	98.86529541015625	344.9686889648439	-1463.320678710938	60.75349426269531	276.6317138671876	-1453.375122070312	109.551513671875	283.9228515625001	-1458.522705078125	42.05657958984375	65.49901580810555	-1367.279418945312	251.7446746826172	76.0272979736329	-1383.632934570312	203.1733551025391	53.75732803344736	-1486.489501953125	20.33101654052734	697.1611938476564	-982.8499755859375	90.89726257324219	661.1663208007814	-972.149169921875	45.59682846069336	640.4635009765626	-978.15087890625	81.65757751464844	340.9447631835938	-965.1318969726562	125.2515716552734	274.6132812500001	-961.8799438476562	77.01097869873047	280.5823364257813	-974.3875122070312	44.40692520141602	64.84077453613288	-1067.090209960938	251.5285186767578	68.82682800292974	-1027.112426757812	194.5123748779297	67.79998779296881	-935.320556640625	386.4651489257812	834.2271728515626	-1218.830322265625	235.7138671875	796.8217163085939	-1211.951293945312	425.6407775878906	870.2698974609376	-1410.154907226562	373.9886779785156	760.8901977539064	-1484.4814453125	333.5509338378906	715.7702636718751	-1512.864379882812	369.8134460449219	695.1032714843751	-1483.00439453125	316.068359375	483.8887329101564	-1495.373413085938	288.9089050292969	424.858367919922	-1506.704223632812	318.3162841796875	425.8479003906251	-1466.614501953125	288.6680908203125	333.8694763183595	-1484.435668945312	423.17578125	865.1759643554689	-1034.26953125	371.8044128417969	721.7003784179689	-987.2156372070312	361.8616027832031	663.6192626953126	-1015.065246582031	355.7394104003906	660.9229125976564	-965.7623291015625	322.7398376464844	471.4994812011719	-966.1616821289062	316.4386291503906	416.0565185546876	-999.2294921875	308.1005249023438	411.1015625000001	-948.9739379882812	292.0742797851562	337.7642211914063	-947.5374145507812	243.6866607666016	251.2096405029298	-2327.91015625	0.02260199934244156	0.00732329022139311	-0.03022330068051815	0.006185799837112427	0.01070890016853809	-0.007782659959048032	0.006386780180037022	0.00776766985654831	-0.0117934001609683	0.01675090007483959	2.145790100097656	-2.075429916381836	2.012089967727661	2.762490034103394	-1.95412003993988	2.928200006484985	0	0	
1351	6.75	277.8966674804688	251.0270690917969	-105.175048828125	597.0336303710938	766.3874511718751	-1211.155517578125	608.168212890625	830.8446655273439	-1136.863891601562	600.119384765625	826.6582031250001	-1292.534057617188	466.470458984375	983.4705200195314	-1211.50048828125	273.4080505371094	1056.867431640625	-1218.376708984375	238.8120574951172	1065.88232421875	-1219.3193359375	178.0318145751953	1065.96142578125	-1167.20849609375	176.6576232910156	1066.039184570312	-1217.07080078125	120.1411972045898	1053.846557617188	-1218.735961914062	39.87946319580078	1072.284301757812	-1220.207885742188	-14.67415809631348	1045.585205078125	-1168.103759765625	-18.45076370239258	1050.511596679688	-1217.98291015625	-76.22156524658203	999.7357788085939	-1238.054321289062	-64.64739227294922	1001.198974609375	-1188.205200195312	-123.569694519043	974.1948852539064	-1199.312255859375	17.21292877197266	730.1659545898439	-1455.624755859375	0.7989879846572876	652.1701049804689	-1447.1728515625	45.23270034790039	674.9487915039064	-1455.642700195312	98.67012786865234	345.0181579589845	-1463.19482421875	60.59859848022461	276.6560058593751	-1453.257934570312	109.3887634277344	283.9724426269532	-1458.442504882812	42.04752731323242	65.48947906494149	-1367.276611328125	251.7461700439453	76.03994750976571	-1383.61572265625	203.1872711181641	53.7741470336915	-1486.463745117188	20.47509574890137	697.1746826171876	-982.77783203125	91.03294372558594	661.1592407226564	-972.1087646484375	45.7223014831543	640.4694824218751	-978.0880126953125	81.69518280029297	340.9530029296876	-965.0596923828125	125.269401550293	274.6022338867188	-961.80859375	77.01743316650391	280.5841369628907	-974.2825927734375	44.39359283447266	64.8198547363282	-1067.078247070312	251.5214538574219	68.84086608886724	-1027.113891601562	194.5094604492188	67.79449462890631	-935.3158569335938	386.4373779296875	833.9932250976564	-1218.902954101562	235.6258697509766	796.7968750000001	-1211.917114257812	425.5956726074219	870.0377807617189	-1410.216186523438	374.1236572265625	760.7208251953126	-1484.5615234375	333.7359619140625	715.5728759765626	-1512.979370117188	369.9637451171875	694.9324340820314	-1483.071411132812	316.0367126464844	483.6927490234376	-1495.520263671875	288.882568359375	424.718963623047	-1507.104248046875	318.1280517578125	425.5719299316407	-1466.890014648438	288.4411926269531	333.665740966797	-1485.000122070312	423.2709350585938	864.7962646484376	-1034.360107421875	371.9634704589844	721.3614501953126	-987.2220458984375	361.8224182128906	663.3019409179689	-1015.017456054688	355.9668579101562	660.6215820312501	-965.6673583984375	322.7303466796875	471.2735290527344	-965.99609375	316.2001953125	415.8428344726563	-999.0344848632812	308.1572265625	410.8846130371094	-948.731689453125	291.9838562011719	337.5282287597657	-947.2470092773438	243.6478424072266	251.2126770019533	-2327.921875	0.02228680066764355	0.007387829944491388	-0.02996890060603619	0.006311289966106415	0.01061380002647638	-0.007722630165517329	0.006216980051249266	0.007870339788496494	-0.01149620022624731	0.0156554002314806	2.147579908370972	-2.074189901351929	2.013720035552979	2.764240026473999	-1.955270051956177	2.92428994178772	0	0	
